<svg width="212" height="198" viewBox="0 0 212 198" fill="none" xmlns="http://www.w3.org/2000/svg">
<path d="M21 68.6648C21 60.3805 27.7157 53.6648 36 53.6648H197C205.284 53.6648 212 60.3805 212 68.6648V77.6648L209.504 74.4557C206.662 70.8019 202.293 68.6648 197.664 68.6648H21Z" fill="#FB5A52"/>
<path d="M106 98.6648C131.405 98.6648 152 78.0699 152 52.6648C152 27.2597 131.405 6.66479 106 6.66479C80.5949 6.66479 60 27.2597 60 52.6648C60 78.0699 80.5949 98.6648 106 98.6648Z" fill="#FFEB3A"/>
<path d="M143.76 49.5444C138.184 60.8564 120.466 63.5208 104.186 55.4955C87.906 47.4701 79.2289 31.7941 84.8052 20.4822C90.3815 9.17018 108.099 6.50581 124.379 14.5311C140.66 22.5565 149.337 38.2324 143.76 49.5444Z" fill="url(#paint0_radial)"/>
<path d="M0 98.2281C0 89.9438 6.71573 83.2281 15 83.2281H198.437C204.01 83.2281 209.123 80.1388 211.716 75.2058L212 74.6648V182.665C212 190.949 205.284 197.665 197 197.665H15C6.71573 197.665 0 190.949 0 182.665V98.2281Z" fill="#3800D6"/>
<path fill-rule="evenodd" clip-rule="evenodd" d="M85.333 144.528L88.667 140.802L106 156.31L123.333 140.802L126.667 144.528L106 163.019L85.333 144.528Z" fill="#FFFFE9"/>
<path fill-rule="evenodd" clip-rule="evenodd" d="M125 173.165H87V168.165H125V173.165Z" fill="#FFFFE9"/>
<path fill-rule="evenodd" clip-rule="evenodd" d="M108.5 109.165V159.165H103.5V109.165H108.5Z" fill="#FFFFE9"/>
<defs>
<radialGradient id="paint0_radial" cx="0" cy="0" r="1" gradientUnits="userSpaceOnUse" gradientTransform="translate(126.345 20.2341) rotate(123.296) scale(43.7526 104.809)">
<stop offset="0.3134" stop-color="#FFFFE9"/>
<stop offset="1" stop-color="#FFFFE9" stop-opacity="0"/>
</radialGradient>
</defs>
</svg>
